REM DIRINDEX 1\5,1\2\6,1\2\7,1\3\8,1\3\9,1\4\10,1\4\11,1\4\12
REM DIRNAME cjc026,folder01,folder02,folder03,folder04,folder05,folder06,folder07,folder08,folder09,folder10,folder11
TITLE ""
FILE "EJE_DB3000_5th_5C_20.mp3" MP3
  TRACK 01 AUDIO
    TITLE "0:"
    INDEX 01 00:00:00
  TRACK 02 AUDIO
    TITLE "10:cjc026_10902"
    INDEX 01 00:00:08
  TRACK 03 AUDIO
    TITLE "0:"
    INDEX 01 00:01:24
  TRACK 04 AUDIO
    TITLE "11:cjc026_10903"
    INDEX 01 00:01:60
  TRACK 05 AUDIO
    TITLE "0:"
    INDEX 01 00:03:09
  TRACK 06 AUDIO
    TITLE "12:cjc026_10904"
    INDEX 01 00:03:45
  TRACK 07 AUDIO
    TITLE "0:"
    INDEX 01 00:04:61
  TRACK 08 AUDIO
    TITLE "10:cjc026_10905"
    INDEX 01 00:05:21
  TRACK 09 AUDIO
    TITLE "0:"
    INDEX 01 00:06:33
  TRACK 10 AUDIO
    TITLE "11:cjc026_10906"
    INDEX 01 00:06:68
  TRACK 11 AUDIO
    TITLE "0:"
    INDEX 01 00:08:37
  TRACK 12 AUDIO
    TITLE "12:cjc026_10907"
    INDEX 01 00:08:72
  TRACK 13 AUDIO
    TITLE "0:"
    INDEX 01 00:10:08
  TRACK 14 AUDIO
    TITLE "10:cjc026_10908"
    INDEX 01 00:10:46
  TRACK 15 AUDIO
    TITLE "0:"
    INDEX 01 00:11:60
  TRACK 16 AUDIO
    TITLE "11:cjc026_10909"
    INDEX 01 00:12:23
  TRACK 17 AUDIO
    TITLE "0:"
    INDEX 01 00:14:05
  TRACK 18 AUDIO
    TITLE "12:cjc026_10910"
    INDEX 01 00:14:43
  TRACK 19 AUDIO
    TITLE "0:"
    INDEX 01 00:15:57
  TRACK 20 AUDIO
    TITLE "10:cjc026_10911"
    INDEX 01 00:16:20
  TRACK 21 AUDIO
    TITLE "0:"
    INDEX 01 00:17:45
  TRACK 22 AUDIO
    TITLE "11:cjc026_10912"
    INDEX 01 00:18:05
  TRACK 23 AUDIO
    TITLE "0:"
    INDEX 01 00:19:46
  TRACK 24 AUDIO
    TITLE "12:cjc026_10913"
    INDEX 01 00:20:06
  TRACK 25 AUDIO
    TITLE "0:"
    INDEX 01 00:21:34
  TRACK 26 AUDIO
    TITLE "10:cjc026_10914"
    INDEX 01 00:21:69
  TRACK 27 AUDIO
    TITLE "0:"
    INDEX 01 00:23:05
  TRACK 28 AUDIO
    TITLE "11:cjc026_10915"
    INDEX 01 00:23:43
  TRACK 29 AUDIO
    TITLE "0:"
    INDEX 01 00:24:73
  TRACK 30 AUDIO
    TITLE "12:cjc026_10916"
    INDEX 01 00:25:39
  TRACK 31 AUDIO
    TITLE "0:"
    INDEX 01 00:26:50
  TRACK 32 AUDIO
    TITLE "10:cjc026_10917"
    INDEX 01 00:27:10
  TRACK 33 AUDIO
    TITLE "0:"
    INDEX 01 00:28:43
  TRACK 34 AUDIO
    TITLE "11:cjc026_10918"
    INDEX 01 00:29:09
  TRACK 35 AUDIO
    TITLE "0:"
    INDEX 01 00:30:34
  TRACK 36 AUDIO
    TITLE "12:cjc026_10919"
    INDEX 01 00:30:69
  TRACK 37 AUDIO
    TITLE "0:"
    INDEX 01 00:32:27
  TRACK 38 AUDIO
    TITLE "10:cjc026_10920"
    INDEX 01 00:32:67
  TRACK 39 AUDIO
    TITLE "0:"
    INDEX 01 00:34:15
  TRACK 40 AUDIO
    TITLE "11:cjc026_10921"
    INDEX 01 00:34:52
  TRACK 41 AUDIO
    TITLE "0:"
    INDEX 01 00:36:05
  TRACK 42 AUDIO
    TITLE "12:cjc026_10922"
    INDEX 01 00:36:40
  TRACK 43 AUDIO
    TITLE "0:"
    INDEX 01 00:37:65
  TRACK 44 AUDIO
    TITLE "10:cjc026_10923"
    INDEX 01 00:38:25
  TRACK 45 AUDIO
    TITLE "0:"
    INDEX 01 00:39:55
  TRACK 46 AUDIO
    TITLE "11:cjc026_10924"
    INDEX 01 00:40:18
  TRACK 47 AUDIO
    TITLE "0:"
    INDEX 01 00:41:70
  TRACK 48 AUDIO
    TITLE "12:cjc026_10925"
    INDEX 01 00:42:30
  TRACK 49 AUDIO
    TITLE "0:"
    INDEX 01 00:43:63
  TRACK 50 AUDIO
    TITLE "10:cjc026_10926"
    INDEX 01 00:44:23
  TRACK 51 AUDIO
    TITLE "0:"
    INDEX 01 00:45:51
  TRACK 52 AUDIO
    TITLE "11:cjc026_10927"
    INDEX 01 00:46:14
  TRACK 53 AUDIO
    TITLE "0:"
    INDEX 01 00:47:22
  TRACK 54 AUDIO
    TITLE "12:cjc026_10928"
    INDEX 01 00:47:57
  TRACK 55 AUDIO
    TITLE "0:"
    INDEX 01 00:49:10
  TRACK 56 AUDIO
    TITLE "10:cjc026_10929"
    INDEX 01 00:49:45
  TRACK 57 AUDIO
    TITLE "0:"
    INDEX 01 00:50:73
  TRACK 58 AUDIO
    TITLE "11:cjc026_10930"
    INDEX 01 00:51:33
  TRACK 59 AUDIO
    TITLE "0:"
    INDEX 01 00:52:55
  TRACK 60 AUDIO
    TITLE "12:cjc026_10931"
    INDEX 01 00:53:15
  TRACK 61 AUDIO
    TITLE "0:"
    INDEX 01 00:54:43
  TRACK 62 AUDIO
    TITLE "10:cjc026_10932"
    INDEX 01 00:55:03
  TRACK 63 AUDIO
    TITLE "0:"
    INDEX 01 00:56:22
  TRACK 64 AUDIO
    TITLE "11:cjc026_10933"
    INDEX 01 00:56:60
  TRACK 65 AUDIO
    TITLE "0:"
    INDEX 01 00:58:37
  TRACK 66 AUDIO
    TITLE "12:cjc026_10934"
    INDEX 01 00:58:69
  TRACK 67 AUDIO
    TITLE "0:"
    INDEX 01 01:00:14
  TRACK 68 AUDIO
    TITLE "10:cjc026_10935"
    INDEX 01 01:00:54
  TRACK 69 AUDIO
    TITLE "0:"
    INDEX 01 01:02:02
  TRACK 70 AUDIO
    TITLE "11:cjc026_10936"
    INDEX 01 01:02:37
  TRACK 71 AUDIO
    TITLE "0:"
    INDEX 01 01:03:62
  TRACK 72 AUDIO
    TITLE "12:cjc026_10937"
    INDEX 01 01:04:19
  TRACK 73 AUDIO
    TITLE "0:"
    INDEX 01 01:05:41
  TRACK 74 AUDIO
    TITLE "10:cjc026_10938"
    INDEX 01 01:06:01
  TRACK 75 AUDIO
    TITLE "0:"
    INDEX 01 01:07:32
  TRACK 76 AUDIO
    TITLE "11:cjc026_10939"
    INDEX 01 01:07:67
  TRACK 77 AUDIO
    TITLE "0:"
    INDEX 01 01:09:19
  TRACK 78 AUDIO
    TITLE "12:cjc026_10940"
    INDEX 01 01:09:49
  TRACK 79 AUDIO
    TITLE "0:"
    INDEX 01 01:11:10
